<?xml version="1.0" standalone="no"?>
<!DOCTYPE svg PUBLIC "-//W3C//DTD SVG 20010904//EN"
 "http://www.w3.org/TR/2001/REC-SVG-20010904/DTD/svg10.dtd">
<svg version="1.0" xmlns="http://www.w3.org/2000/svg"
 width="128.000000pt" height="128.000000pt" viewBox="0 0 128.000000 128.000000"
 preserveAspectRatio="xMidYMid meet">

<g transform="translate(0.000000,128.000000) scale(0.100000,-0.100000)"
fill="#000000" stroke="none">
<path d="M29 1251 l-29 -29 0 -581 0 -580 24 -28 24 -28 591 0 590 0 23 23 23
23 0 590 0 591 -28 24 -28 24 -580 0 -581 0 -29 -29z m321 -231 c0 -7 155 -10
445 -10 l445 0 0 -469 c0 -414 -2 -471 -16 -485 -14 -14 -80 -16 -584 -16
-504 0 -570 2 -584 16 -14 14 -16 71 -16 485 l0 469 119 0 c69 0 122 4 126 10
3 6 19 10 36 10 16 0 29 -4 29 -10z"/>
<path d="M290 921 c-143 -51 -218 -226 -153 -356 46 -90 143 -155 233 -155
149 0 272 123 269 269 -3 176 -183 301 -349 242z m-15 -70 c-11 -22 -20 -28
-35 -24 -26 7 -26 7 13 32 41 26 40 26 22 -8z m75 -6 c0 -28 -4 -35 -20 -35
-24 0 -24 3 -5 40 20 39 25 38 25 -5z m90 -21 c0 -8 -9 -14 -20 -14 -17 0 -20
7 -20 38 l1 37 19 -24 c11 -13 20 -29 20 -37z m70 26 c20 -16 22 -20 8 -20
-10 0 -21 0 -25 -1 -4 0 -10 9 -15 20 -9 26 0 26 32 1z m-260 -80 c0 -4 -3
-22 -6 -39 -6 -28 -10 -31 -45 -31 -44 0 -48 10 -25 65 14 33 16 34 45 24 17
-6 31 -14 31 -19z m335 -26 l13 -39 -40 -3 c-22 -2 -41 -2 -43 0 -1 2 -5 20
-8 40 -5 33 -3 38 21 46 33 11 40 6 57 -44z m-251 20 c10 -4 16 -18 16 -35 0
-26 -4 -29 -30 -29 -28 0 -30 3 -30 35 0 36 10 42 44 29z m128 -29 c4 -34 3
-35 -29 -35 -30 0 -33 3 -33 29 0 29 10 39 41 40 12 1 18 -9 21 -34z m-217
-121 c7 -39 2 -48 -32 -58 -18 -6 -25 -1 -37 23 -9 17 -16 39 -16 51 0 17 6
20 39 20 37 0 39 -2 46 -36z m105 1 c0 -32 -2 -35 -30 -35 -28 0 -30 3 -30 35
0 32 2 35 30 35 28 0 30 -3 30 -35z m112 0 c-4 -31 -8 -35 -33 -35 -26 0 -29
3 -29 35 0 33 2 35 33 35 32 0 33 -1 29 -35z m126 -2 c-14 -55 -29 -67 -62
-52 -16 8 -25 18 -21 27 3 7 5 25 5 38 0 22 4 24 44 24 l44 0 -10 -37z m-238
-110 l-1 -38 -19 24 c-26 30 -25 51 0 51 17 0 20 -7 20 -37z m90 23 c0 -8 -9
-24 -20 -37 l-19 -24 -1 38 c0 30 3 37 20 37 11 0 20 -6 20 -14z m-167 -26 c6
-23 3 -24 -24 -10 -24 14 -25 30 0 30 10 0 21 -9 24 -20z m247 11 c0 -5 -11
-16 -25 -25 -27 -18 -30 -15 -15 15 11 19 40 27 40 10z"/>
<path d="M670 860 c0 -10 5 -42 11 -70 12 -58 41 -70 54 -22 l7 27 10 -27 c16
-47 45 -36 57 22 6 28 11 60 11 71 0 29 -33 20 -40 -11 l-6 -25 -7 28 c-9 35
-33 35 -44 0 l-10 -28 -6 28 c-8 31 -37 37 -37 7z"/>
<path d="M840 867 c0 -7 5 -39 11 -70 13 -65 40 -78 57 -29 l10 27 7 -27 c4
-15 13 -29 21 -32 19 -7 32 22 40 88 6 46 4 56 -8 56 -9 0 -19 -10 -22 -22
l-7 -23 -9 23 c-13 30 -38 28 -47 -5 l-7 -28 -6 25 c-6 27 -40 41 -40 17z"/>
<path d="M1016 871 c-8 -12 13 -112 26 -129 13 -15 38 2 38 24 0 8 5 14 10 14
6 0 10 -6 10 -14 0 -22 26 -39 37 -24 15 19 33 122 23 132 -11 12 -30 -2 -30
-22 0 -13 -5 -12 -20 8 l-20 25 -19 -24 c-18 -23 -18 -23 -24 -2 -5 22 -22 28
-31 12z"/>
<path d="M670 560 c0 -20 4 -20 248 -18 212 3 247 5 247 18 0 13 -35 15 -247
18 -244 2 -248 2 -248 -18z"/>
<path d="M670 485 c0 -13 28 -15 190 -15 162 0 190 2 190 15 0 13 -28 15 -190
15 -162 0 -190 -2 -190 -15z"/>
<path d="M343 274 c-82 -36 -104 -58 -81 -80 7 -6 50 -28 94 -48 l82 -36 271
0 272 0 24 25 c20 19 25 34 25 77 0 32 -6 62 -16 76 -14 20 -23 22 -120 22
-63 0 -104 -4 -104 -10 0 -5 -11 -10 -25 -10 -14 0 -25 5 -25 10 0 6 -59 10
-157 10 l-158 -1 -82 -35z m62 -43 c6 -21 -3 -51 -16 -51 -5 0 -26 7 -47 16
l-37 15 35 19 c45 24 57 25 65 1z"/>
</g>
</svg>
