<?xml version="1.0" standalone="no"?>
<!DOCTYPE svg PUBLIC "-//W3C//DTD SVG 20010904//EN"
 "http://www.w3.org/TR/2001/REC-SVG-20010904/DTD/svg10.dtd">
<svg version="1.0" xmlns="http://www.w3.org/2000/svg"
 width="512.000000pt" height="512.000000pt" viewBox="0 0 512.000000 512.000000"
 preserveAspectRatio="xMidYMid meet">

<g transform="translate(0.000000,512.000000) scale(0.100000,-0.100000)"
fill="#000000" stroke="none">
<path d="M2368 5106 c-10 -7 -24 -28 -32 -47 -7 -19 -208 -591 -446 -1271
l-433 -1238 -61 0 c-37 -1 -68 -6 -80 -15 -10 -8 -40 -74 -66 -147 l-48 -133
-213 -5 c-184 -4 -219 -8 -249 -24 -84 -44 -123 -109 -123 -201 0 -97 43 -163
133 -204 45 -20 55 -21 1810 -21 1755 0 1765 1 1810 21 90 41 133 107 133 204
0 92 -39 157 -123 201 -30 16 -65 20 -249 24 l-213 5 -48 133 c-26 73 -56 139
-66 147 -12 9 -43 14 -80 15 l-61 0 -433 1238 c-238 680 -439 1252 -446 1271
-24 58 -32 60 -224 60 -130 0 -180 -3 -192 -13z m366 -355 c42 -120 76 -221
76 -225 0 -3 -112 -6 -250 -6 -137 0 -250 3 -250 6 0 4 34 105 76 225 l77 219
97 0 97 0 77 -219z m345 -985 c116 -333 211 -607 211 -610 0 -3 -328 -6 -730
-6 -401 0 -730 3 -730 6 0 3 95 277 211 610 l212 604 307 0 307 0 212 -604z
m344 -985 c43 -120 77 -221 77 -225 0 -3 -386 -6 -858 -6 -850 0 -858 0 -880
-20 -14 -14 -22 -33 -22 -55 0 -22 8 -41 22 -55 22 -20 29 -20 984 -20 l962 0
25 -75 26 -75 -1199 0 -1199 0 26 75 25 75 61 0 c37 1 69 6 80 15 19 14 50 95
162 418 l58 167 787 0 787 0 76 -219z m896 -691 c10 -5 24 -22 30 -39 10 -24
10 -34 -3 -59 -8 -16 -23 -32 -31 -36 -22 -8 -3488 -8 -3510 0 -24 10 -46 60
-39 89 15 59 -108 55 1792 55 1097 0 1750 -4 1761 -10z"/>
<path d="M662 1639 c-11 -4 -28 -19 -37 -32 -15 -23 -12 -43 40 -318 31 -162
61 -309 66 -326 21 -66 90 -83 138 -36 21 22 38 67 80 216 30 103 55 187 56
187 2 0 27 -86 56 -191 30 -104 62 -199 72 -210 36 -39 114 -32 138 13 12 22
120 577 122 625 1 45 -27 73 -73 73 -22 0 -43 -7 -53 -18 -9 -10 -29 -88 -49
-192 l-34 -175 -49 173 c-27 95 -57 181 -67 192 -42 45 -120 32 -143 -24 -7
-17 -32 -101 -56 -186 l-43 -155 -33 169 c-18 93 -39 179 -47 191 -17 25 -53
35 -84 24z"/>
<path d="M1733 1640 c-186 -44 -312 -233 -282 -424 42 -265 344 -399 573 -253
181 115 222 374 86 545 -86 109 -243 164 -377 132z m187 -167 c31 -17 65 -45
84 -71 29 -41 31 -50 31 -127 0 -77 -2 -86 -31 -127 -41 -56 -119 -98 -183
-98 -61 0 -141 38 -176 84 -146 191 64 449 275 339z"/>
<path d="M2319 1631 l-24 -19 0 -337 0 -337 24 -19 c30 -25 62 -24 95 2 25 20
26 24 26 122 l1 102 62 -70 c118 -134 163 -175 189 -175 41 0 72 32 72 73 0
29 -12 49 -83 128 l-82 93 34 17 c57 30 106 89 124 148 13 46 14 63 3 109 -10
46 -22 65 -64 107 -64 63 -101 75 -244 75 -93 0 -113 -3 -133 -19z m272 -160
c16 -16 29 -39 29 -51 0 -12 -13 -35 -29 -51 -26 -26 -36 -29 -90 -29 l-61 0
0 80 0 80 61 0 c54 0 64 -3 90 -29z"/>
<path d="M2890 1620 c-19 -19 -20 -33 -20 -349 l0 -330 26 -20 c33 -26 65 -27
95 -2 22 17 24 29 28 110 l3 92 108 -105 c59 -57 118 -107 130 -111 58 -18
113 40 90 95 -6 15 -72 84 -146 154 l-134 128 72 66 c176 161 191 178 191 211
0 43 -28 71 -72 71 -32 0 -48 -12 -137 -95 l-102 -95 -4 81 c-3 70 -6 83 -27
100 -30 25 -76 24 -101 -1z"/>
<path d="M3836 1579 c-36 -28 -36 -80 0 -108 44 -34 86 -26 110 21 13 25 13
35 3 59 -21 52 -68 63 -113 28z"/>
<path d="M3836 1329 l-26 -20 0 -184 0 -184 26 -20 c43 -34 86 -26 109 20 21
40 21 328 0 368 -23 46 -66 54 -109 20z"/>
<path d="M4087 1330 l-27 -21 0 -184 0 -184 26 -20 c43 -34 86 -26 109 20 10
19 15 59 15 123 0 90 1 95 26 115 43 34 86 26 109 -20 10 -19 15 -59 15 -123
0 -90 1 -95 26 -115 30 -24 43 -26 78 -10 39 18 49 57 44 172 -7 146 -39 202
-142 248 -41 18 -59 20 -105 14 -65 -8 -76 -8 -116 0 -22 5 -37 1 -58 -15z"/>
<path d="M132 743 c-7 -3 -19 -18 -27 -33 -22 -42 -22 -627 0 -669 23 -46 66
-54 109 -20 25 20 26 24 26 128 l0 108 83 5 c95 5 147 27 197 84 44 51 60 93
60 159 0 100 -50 176 -145 221 -44 21 -64 24 -170 23 -66 0 -126 -3 -133 -6z
m274 -176 c25 -30 31 -75 14 -108 -17 -30 -64 -49 -125 -49 l-55 0 0 96 0 96
71 -4 c63 -3 74 -7 95 -31z"/>
<path d="M706 729 l-26 -20 0 -334 0 -334 26 -20 c33 -26 65 -27 95 -2 22 17
24 28 27 120 l4 101 101 -116 c57 -64 112 -117 125 -121 51 -12 101 38 89 89
-4 13 -42 64 -86 114 l-80 91 40 19 c111 50 158 185 105 300 -46 99 -118 133
-282 134 -98 0 -114 -3 -138 -21z m247 -141 c52 -27 62 -83 22 -123 -20 -21
-34 -25 -85 -25 l-60 0 0 80 0 80 51 0 c28 0 60 -5 72 -12z"/>
<path d="M1507 740 c-105 -27 -206 -112 -254 -215 -24 -52 -28 -72 -28 -150 0
-77 4 -99 28 -151 36 -77 113 -154 192 -191 52 -24 73 -28 150 -28 80 0 97 3
155 31 82 39 144 101 184 184 28 58 31 75 31 155 0 80 -3 97 -31 155 -62 129
-178 208 -316 215 -40 3 -90 0 -111 -5z m158 -151 c53 -15 129 -91 144 -144
25 -92 7 -163 -59 -227 -95 -92 -217 -91 -310 2 -91 90 -93 211 -6 307 61 66
140 87 231 62z"/>
<path d="M2337 740 c-105 -27 -206 -112 -254 -215 -24 -52 -28 -72 -28 -150 0
-77 4 -99 28 -151 36 -77 113 -154 192 -191 52 -24 72 -28 150 -27 74 0 99 4
140 24 92 45 150 121 180 237 22 85 20 129 -10 158 -23 24 -30 25 -140 25
-110 0 -117 -1 -140 -25 -14 -13 -25 -36 -25 -50 0 -14 11 -37 25 -50 20 -21
34 -25 85 -25 33 0 60 -2 60 -5 0 -15 -41 -83 -62 -102 -71 -66 -186 -55 -268
27 -93 93 -93 216 0 311 71 74 167 88 260 40 53 -28 85 -27 115 4 27 26 30 41
15 80 -16 41 -124 87 -214 91 -39 2 -88 -1 -109 -6z"/>
<path d="M2886 729 l-26 -20 0 -334 0 -334 26 -20 c33 -26 65 -27 95 -2 22 17
25 29 29 119 l5 100 95 -110 c121 -140 139 -150 194 -107 48 38 37 72 -58 181
l-85 96 40 18 c48 21 104 83 120 132 15 46 7 130 -18 178 -24 47 -89 99 -141
114 -20 5 -85 10 -143 10 -92 0 -110 -3 -133 -21z m253 -144 c48 -24 56 -81
16 -120 -20 -21 -34 -25 -85 -25 l-60 0 0 80 0 80 50 0 c28 0 64 -7 79 -15z"/>
<path d="M4074 736 c-60 -19 -101 -54 -129 -110 -30 -59 -31 -106 -6 -161 28
-61 66 -88 194 -140 130 -53 154 -74 138 -118 -6 -14 -24 -33 -40 -42 -59 -30
-133 -13 -220 50 -41 30 -60 31 -95 4 -19 -15 -26 -30 -26 -54 0 -72 154 -165
274 -165 185 0 314 170 239 315 -36 69 -74 95 -228 155 -44 18 -86 36 -92 42
-37 30 14 88 77 88 23 0 61 -12 95 -30 81 -42 125 -37 146 17 15 41 -5 75 -64
110 -88 53 -177 66 -263 39z"/>
<path d="M4674 736 c-60 -19 -101 -54 -129 -110 -30 -59 -31 -106 -6 -161 28
-61 66 -88 194 -140 130 -53 154 -74 138 -118 -6 -14 -24 -33 -40 -42 -59 -30
-133 -13 -220 50 -41 30 -60 31 -95 4 -19 -15 -26 -30 -26 -54 0 -72 154 -165
274 -165 185 0 314 170 239 315 -36 69 -74 95 -228 155 -44 18 -86 36 -92 42
-37 30 14 88 77 88 23 0 61 -12 95 -30 81 -42 125 -37 146 17 15 41 -5 75 -64
110 -88 53 -177 66 -263 39z"/>
<path d="M3454 717 l-29 -25 -3 -304 c-2 -166 0 -313 3 -326 3 -12 14 -31 25
-42 18 -18 34 -20 170 -20 147 0 152 1 175 25 14 13 25 36 25 50 0 14 -11 37
-25 50 -22 23 -31 25 -125 25 l-100 0 0 69 0 69 96 4 c86 3 98 5 115 27 22 28
25 69 5 97 -12 16 -30 20 -113 24 l-98 5 0 70 0 70 100 3 c86 2 103 6 122 24
28 26 30 68 4 99 -18 23 -26 24 -169 27 -147 3 -150 3 -178 -21z"/>
</g>
</svg>
